<svg id="Layer_1" data-name="Layer 1" xmlns="http://www.w3.org/2000/svg" viewBox="0 0 1329.09 1101.17"><defs><style>.cls-1{font-size:76.09px;fill:#44f1a6;font-family:InkFree, Ink Free;}</style></defs><text class="cls-1" transform="translate(38.74 118.08) rotate(-20.89) scale(1.1 1)">$</text><text class="cls-1" transform="translate(16.11 180.81) rotate(16.42) scale(1.1 1)">$</text><text class="cls-1" transform="translate(88.52 73.7) rotate(16.42) scale(1.1 1)">$</text><text class="cls-1" transform="translate(105.52 178.85) rotate(-25.4) scale(1.1 1)">$</text><text class="cls-1" transform="translate(186.46 108.52) rotate(-20.89) scale(1.1 1)">$</text><text class="cls-1" transform="matrix(0.79, -0.77, 0.7, 0.71, 178.18, 178.46)">$</text><text class="cls-1" transform="translate(236.25 74.15) rotate(16.42) scale(1.1 1)">$</text><text class="cls-1" transform="translate(253.25 169.29) rotate(-25.4) scale(1.1 1)">$</text><text class="cls-1" transform="translate(51.6 283.3) rotate(-20.89) scale(1.1 1)">$</text><text class="cls-1" transform="translate(28.97 346.03) rotate(16.42) scale(1.1 1)">$</text><text class="cls-1" transform="translate(98.04 220.44) rotate(50.67) scale(1.1 1)">$</text><text class="cls-1" transform="translate(118.39 344.07) rotate(-25.4) scale(1.1 1)">$</text><text class="cls-1" transform="translate(210.33 255.75) rotate(-20.89) scale(1.1 1)">$</text><text class="cls-1" transform="matrix(0.79, -0.77, 0.7, 0.71, 199.05, 329.69)">$</text><text class="cls-1" transform="translate(279.11 223.37) rotate(16.42) scale(1.1 1)">$</text><text class="cls-1" transform="translate(266.12 334.51) rotate(-25.4) scale(1.1 1)">$</text><text class="cls-1" transform="translate(41.89 442.74) rotate(-25.4) scale(1.1 1)">$</text><text class="cls-1" transform="matrix(1.13, 0.33, -0.28, 0.96, 15.77, 515.94)">$</text><text class="cls-1" transform="matrix(-0.48, 0.99, -0.9, -0.44, 105.41, 365.56)">$</text><text class="cls-1" transform="translate(114.82 527.67) rotate(-29.33) scale(1.1 1)">$</text><text class="cls-1" transform="translate(265.88 417.2) rotate(-48.51) scale(1.1 1)">$</text><text class="cls-1" transform="matrix(0.79, -0.77, 0.7, 0.71, 220.68, 516.11)">$</text><text class="cls-1" transform="translate(304.74 405.79) rotate(16.42) scale(1.1 1)">$</text><text class="cls-1" transform="translate(304.33 515.84) rotate(-25.4) scale(1.1 1)">$</text><text class="cls-1" transform="translate(177.85 423.61) rotate(-25.4) scale(1.1 1)">$</text><text class="cls-1" transform="translate(373.74 133.63) rotate(-20.89) scale(1.1 1)">$</text><text class="cls-1" transform="matrix(0.79, -0.77, 0.7, 0.71, 335.72, 159.72)">$</text><text class="cls-1" transform="translate(449.79 90.4) rotate(16.42) scale(1.1 1)">$</text><text class="cls-1" transform="translate(436.79 193.55) rotate(-25.4) scale(1.1 1)">$</text><text class="cls-1" transform="translate(367.87 237) rotate(-20.89) scale(1.1 1)">$</text><text class="cls-1" transform="translate(462.65 247.62) rotate(16.42) scale(1.1 1)">$</text><text class="cls-1" transform="translate(304.76 54.23) rotate(41.49) scale(1.1 1)">$</text><text class="cls-1" transform="translate(406.59 79.59) rotate(-17.07) scale(1.1 1)">$</text><text class="cls-1" transform="translate(584.78 334.05) rotate(-73.58) scale(1.1 1)">$</text><text class="cls-1" transform="translate(529 124.78) rotate(-20.89) scale(1.1 1)">$</text><text class="cls-1" transform="matrix(0.79, -0.77, 0.7, 0.71, 520.72, 194.72)">$</text><text class="cls-1" transform="translate(578.79 90.4) rotate(16.42) scale(1.1 1)">$</text><text class="cls-1" transform="translate(595.79 185.55) rotate(-25.4) scale(1.1 1)">$</text><text class="cls-1" transform="translate(552.87 272) rotate(-20.89) scale(1.1 1)">$</text><text class="cls-1" transform="translate(621.65 239.62) rotate(16.42) scale(1.1 1)">$</text><text class="cls-1" transform="translate(708 103.78) rotate(-20.89) scale(1.1 1)">$</text><text class="cls-1" transform="matrix(0.79, -0.77, 0.7, 0.71, 699.72, 173.72)">$</text><text class="cls-1" transform="translate(757.79 69.4) rotate(16.42) scale(1.1 1)">$</text><text class="cls-1" transform="translate(774.79 164.55) rotate(-25.4) scale(1.1 1)">$</text><text class="cls-1" transform="translate(731.87 251) rotate(-20.89) scale(1.1 1)">$</text><text class="cls-1" transform="translate(800.65 218.62) rotate(16.42) scale(1.1 1)">$</text><text class="cls-1" transform="translate(335.8 318.98) rotate(-20.89) scale(1.1 1)">$</text><text class="cls-1" transform="translate(397.08 309.33) rotate(12.02) scale(1.1 1)">$</text><text class="cls-1" transform="matrix(1.09, -0.13, 0.12, 0.99, 469.88, 346.93)">$</text><text class="cls-1" transform="translate(520.2 391.53) rotate(12.02) scale(1.1 1)">$</text><text class="cls-1" transform="translate(469.76 457.04) rotate(-11.08) scale(1.1 1)">$</text><text class="cls-1" transform="matrix(1.09, -0.13, 0.12, 0.99, 373.75, 508.12)">$</text><text class="cls-1" transform="translate(507.55 471.61) rotate(53.85) scale(1.1 1)">$</text><text class="cls-1" transform="translate(424.34 629.75) rotate(12.02) scale(1.1 1)">$</text><text class="cls-1" transform="translate(395.96 408.63) rotate(12.02) scale(1.1 1)">$</text><text class="cls-1" transform="translate(578.6 378.71) rotate(49.59) scale(1.1 1)">$</text><text class="cls-1" transform="translate(621.52 318.7) rotate(16.42) scale(1.1 1)">$</text><text class="cls-1" transform="translate(685.52 318.7) rotate(16.42) scale(1.1 1)">$</text><text class="cls-1" transform="translate(1292.49 604.27) rotate(148.03) scale(1.1 1)">$</text><text class="cls-1" transform="translate(1302.64 538.35) rotate(-174.65) scale(1.1 1)">$</text><text class="cls-1" transform="translate(1252.15 657.38) rotate(-174.65) scale(1.1 1)">$</text><text class="cls-1" transform="translate(1215.26 557.46) rotate(143.52) scale(1.1 1)">$</text><text class="cls-1" transform="translate(1149.34 642.03) rotate(148.03) scale(1.1 1)">$</text><text class="cls-1" transform="matrix(-0.62, 0.91, -0.82, -0.57, 1144.03, 571.8)">$</text><text class="cls-1" transform="translate(1107.09 685.33) rotate(-174.65) scale(1.1 1)">$</text><text class="cls-1" transform="translate(1072.12 595.22) rotate(143.52) scale(1.1 1)">$</text><text class="cls-1" transform="translate(1248.12 444.59) rotate(148.03) scale(1.1 1)">$</text><text class="cls-1" transform="translate(1258.27 378.68) rotate(-174.65) scale(1.1 1)">$</text><text class="cls-1" transform="matrix(-0.85, -0.7, 0.64, -0.77, 1214.62, 515.2)">$</text><text class="cls-1" transform="translate(1170.89 397.79) rotate(143.52) scale(1.1 1)">$</text><text class="cls-1" transform="translate(1097.64 502.13) rotate(148.03) scale(1.1 1)">$</text><text class="cls-1" transform="matrix(-0.62, 0.91, -0.82, -0.57, 1094.5, 427.4)">$</text><text class="cls-1" transform="translate(1036.36 547.12) rotate(-174.65) scale(1.1 1)">$</text><text class="cls-1" transform="translate(1027.75 435.55) rotate(143.52) scale(1.1 1)">$</text><text class="cls-1" transform="translate(1227.01 286.26) rotate(143.52) scale(1.1 1)">$</text><text class="cls-1" transform="matrix(-1.17, -0.11, 0.09, -1, 1238.58, 209.4)">$</text><text class="cls-1" transform="translate(1179.5 374.2) rotate(-75.13) scale(1.1 1)">$</text><text class="cls-1" transform="matrix(-0.84, 0.71, -0.65, -0.76, 1139.12, 216.92)">$</text><text class="cls-1" transform="translate(1012.1 354.36) rotate(120.42) scale(1.1 1)">$</text><text class="cls-1" transform="matrix(-0.62, 0.91, -0.82, -0.57, 1037.46, 248.61)">$</text><text class="cls-1" transform="translate(976.15 373.02) rotate(-174.65) scale(1.1 1)">$</text><text class="cls-1" transform="translate(955.41 264.94) rotate(143.52) scale(1.1 1)">$</text><text class="cls-1" transform="matrix(-0.88, 0.65, -0.59, -0.8, 1097.26, 331.15)">$</text><text class="cls-1" transform="translate(960.74 653.37) rotate(148.03) scale(1.1 1)">$</text><text class="cls-1" transform="matrix(-0.62, 0.91, -0.82, -0.57, 993.03, 620.46)">$</text><text class="cls-1" transform="translate(894.41 747.41) rotate(-174.65) scale(1.1 1)">$</text><text class="cls-1" transform="translate(887.34 642.68) rotate(143.52) scale(1.1 1)">$</text><text class="cls-1" transform="translate(914.64 555.8) rotate(148.03) scale(1.1 1)">$</text><text class="cls-1" transform="translate(851.58 558.58) rotate(-174.65) scale(1.1 1)">$</text><text class="cls-1" transform="translate(1043.68 718.04) rotate(-149.58) scale(1.1 1)">$</text><text class="cls-1" transform="translate(965.38 733.6) rotate(143.52) scale(1.1 1)">$</text><text class="cls-1" transform="translate(715.11 497.24) rotate(95.35) scale(1.1 1)">$</text><text class="cls-1" transform="translate(810.06 691.89) rotate(148.03) scale(1.1 1)">$</text><text class="cls-1" transform="matrix(-0.62, 0.91, -0.82, -0.57, 804.75, 621.66)">$</text><text class="cls-1" transform="translate(767.81 735.19) rotate(-174.65) scale(1.1 1)">$</text><text class="cls-1" transform="translate(732.84 645.08) rotate(143.52) scale(1.1 1)">$</text><text class="cls-1" transform="translate(758.36 551.99) rotate(148.03) scale(1.1 1)">$</text><text class="cls-1" transform="translate(697.08 596.98) rotate(-174.65) scale(1.1 1)">$</text><text class="cls-1" transform="translate(638.44 746.89) rotate(148.03) scale(1.1 1)">$</text><text class="cls-1" transform="matrix(-0.62, 0.91, -0.82, -0.57, 633.12, 676.66)">$</text><text class="cls-1" transform="translate(596.18 790.19) rotate(-174.65) scale(1.1 1)">$</text><text class="cls-1" transform="translate(561.21 700.09) rotate(143.52) scale(1.1 1)">$</text><text class="cls-1" transform="translate(586.73 607) rotate(148.03) scale(1.1 1)">$</text><text class="cls-1" transform="translate(525.45 651.99) rotate(-174.65) scale(1.1 1)">$</text><text class="cls-1" transform="translate(955.35 485.19) rotate(148.03) scale(1.1 1)">$</text><text class="cls-1" transform="translate(904.07 485.43) rotate(-179.05) scale(1.1 1)">$</text><text class="cls-1" transform="translate(825.41 462.51) rotate(161.92) scale(1.1 1)">$</text><text class="cls-1" transform="translate(767.45 428.42) rotate(-179.05) scale(1.1 1)">$</text><text class="cls-1" transform="translate(804.36 354.43) rotate(157.84) scale(1.1 1)">$</text><text class="cls-1" transform="translate(888.77 285.86) rotate(161.92) scale(1.1 1)">$</text><text class="cls-1" transform="matrix(-0.81, -0.75, 0.68, -0.73, 764.48, 347.4)">$</text><text class="cls-1" transform="translate(813.69 248.97) rotate(-179.05) scale(1.1 1)">$</text><text class="cls-1" transform="translate(886.09 387.76) rotate(-179.05) scale(1.1 1)">$</text><text class="cls-1" transform="translate(698.11 411.41) rotate(-174.54) scale(1.1 1)">$</text><text class="cls-1" transform="translate(682.01 519.36) rotate(-174.65) scale(1.1 1)">$</text><text class="cls-1" transform="translate(619.21 531.65) rotate(-174.65) scale(1.1 1)">$</text><text class="cls-1" transform="translate(507.28 574.59) rotate(12.02) scale(1.1 1)">$</text><text class="cls-1" transform="translate(638.05 443.16) rotate(-174.54) scale(1.1 1)">$</text><text class="cls-1" transform="translate(263.09 519.53) rotate(95.35) scale(1.1 1)">$</text><text class="cls-1" transform="translate(280.82 667.38) rotate(143.52) scale(1.1 1)">$</text><text class="cls-1" transform="translate(306.34 574.29) rotate(148.03) scale(1.1 1)">$</text><text class="cls-1" transform="translate(245.05 619.28) rotate(-174.65) scale(1.1 1)">$</text><text class="cls-1" transform="translate(186.41 769.18) rotate(148.03) scale(1.1 1)">$</text><text class="cls-1" transform="matrix(-0.62, 0.91, -0.82, -0.57, 181.1, 698.95)">$</text><text class="cls-1" transform="translate(144.16 812.49) rotate(-174.65) scale(1.1 1)">$</text><text class="cls-1" transform="translate(118.19 710.38) rotate(143.52) scale(1.1 1)">$</text><text class="cls-1" transform="translate(134.71 629.29) rotate(148.03) scale(1.1 1)">$</text><text class="cls-1" transform="translate(73.42 674.28) rotate(-174.65) scale(1.1 1)">$</text><text class="cls-1" transform="translate(229.99 541.65) rotate(-174.65) scale(1.1 1)">$</text><text class="cls-1" transform="translate(167.18 553.95) rotate(-174.65) scale(1.1 1)">$</text><text class="cls-1" transform="translate(38.26 617.88) rotate(12.02) scale(1.1 1)">$</text><text class="cls-1" transform="translate(79.02 747.07) rotate(-174.65) scale(1.1 1)">$</text><text class="cls-1" transform="translate(1044.44 154.22) rotate(143.52) scale(1.1 1)">$</text><text class="cls-1" transform="matrix(-1.17, -0.11, 0.09, -1, 1056.01, 77.37)">$</text><text class="cls-1" transform="translate(996.93 242.17) rotate(-75.13) scale(1.1 1)">$</text><text class="cls-1" transform="matrix(-0.84, 0.71, -0.65, -0.76, 956.55, 84.89)">$</text><text class="cls-1" transform="matrix(-0.62, 0.91, -0.82, -0.57, 854.89, 116.58)">$</text><text class="cls-1" transform="matrix(-0.88, 0.65, -0.59, -0.8, 914.69, 199.12)">$</text><text class="cls-1" transform="translate(220.44 1018.22) rotate(143.52) scale(1.1 1)">$</text><text class="cls-1" transform="matrix(-1.17, -0.11, 0.09, -1, 245.01, 860.37)">$</text><text class="cls-1" transform="translate(252.93 991.17) rotate(-75.13) scale(1.1 1)">$</text><text class="cls-1" transform="matrix(-0.84, 0.71, -0.65, -0.76, 154.55, 894.89)">$</text><text class="cls-1" transform="matrix(-0.62, 0.91, -0.82, -0.57, 66.85, 924.81)">$</text><text class="cls-1" transform="matrix(-0.88, 0.65, -0.59, -0.8, 143.69, 1011.12)">$</text><text class="cls-1" transform="translate(456.44 807.22) rotate(143.52) scale(1.1 1)">$</text><text class="cls-1" transform="matrix(-1.17, -0.11, 0.09, -1, 468.01, 730.37)">$</text><text class="cls-1" transform="translate(408.93 895.17) rotate(-75.13) scale(1.1 1)">$</text><text class="cls-1" transform="matrix(-0.84, 0.71, -0.65, -0.76, 368.55, 737.89)">$</text><text class="cls-1" transform="matrix(-0.62, 0.91, -0.82, -0.57, 266.89, 769.58)">$</text><text class="cls-1" transform="matrix(-0.88, 0.65, -0.59, -0.8, 304.69, 852.12)">$</text><text class="cls-1" transform="matrix(-1.17, -0.11, 0.09, -1, 88.15, 1018.36)">$</text><text class="cls-1" transform="matrix(-0.4, 1.1, -0.94, -0.34, 40.37, 832.38)">$</text><text class="cls-1" transform="translate(429.75 642.46) rotate(148.03) scale(1.1 1)">$</text><text class="cls-1" transform="translate(480.9 497.55) rotate(-174.65) scale(1.1 1)">$</text><text class="cls-1" transform="translate(362.42 667.58) rotate(-174.65) scale(1.1 1)">$</text><text class="cls-1" transform="translate(386.53 571.66) rotate(143.52) scale(1.1 1)">$</text></svg>